# Blender 4.2.9 LTS
# www.blender.org
mtllib torch.mtl
o Torch
v 0.437500 0.000000 0.562500
v 0.437500 0.437500 0.562500
v 0.437500 0.000000 0.437500
v 0.437500 0.437500 0.437500
v 0.562500 0.000000 0.562500
v 0.562500 0.437500 0.562500
v 0.562500 0.000000 0.437500
v 0.562500 0.437500 0.437500
v 0.625000 0.625000 0.375000
v 0.625000 0.437500 0.375000
v 0.625000 0.625000 0.625000
v 0.625000 0.437500 0.625000
v 0.375000 0.625000 0.375000
v 0.375000 0.437500 0.375000
v 0.375000 0.625000 0.625000
v 0.375000 0.437500 0.625000
vn -1.0000 -0.0000 -0.0000
vn -0.0000 -0.0000 -1.0000
vn 1.0000 -0.0000 -0.0000
vn -0.0000 -0.0000 1.0000
vn -0.0000 -1.0000 -0.0000
vn -0.0000 1.0000 -0.0000
vt 0.000000 0.733333
vt 0.000000 0.266667
vt 0.133333 0.266667
vt 0.133333 0.733333
vt 0.133333 0.733333
vt 0.133333 0.266667
vt 0.266667 0.266667
vt 0.266667 0.733333
vt 0.266667 0.733333
vt 0.266667 0.266667
vt 0.400000 0.266667
vt 0.400000 0.733333
vt 0.131832 0.717798
vt 0.131832 0.251132
vt 0.265166 0.251132
vt 0.265166 0.717798
vt 0.272942 0.364296
vt 0.272942 0.497629
vt 0.139608 0.497629
vt 0.139608 0.364296
vt 0.272942 0.630963
vt 0.139608 0.630963
vt 0.139608 0.497629
vt 0.272942 0.497629
vt 0.637147 0.469726
vt 0.903814 0.469726
vt 0.903814 0.736393
vt 0.637147 0.736393
vt 0.903034 0.369767
vt 0.903034 0.569767
vt 0.636368 0.569767
vt 0.636368 0.369767
vt 0.901517 0.434916
vt 0.901517 0.634916
vt 0.634851 0.634916
vt 0.634851 0.434916
vt 0.901517 0.234916
vt 0.901517 0.434916
vt 0.634851 0.434916
vt 0.634851 0.234916
vt 0.901517 0.634916
vt 0.901517 0.834916
vt 0.634851 0.834916
vt 0.634851 0.634916
vt 0.903814 0.203059
vt 0.637147 0.203059
s 0
usemtl SignMaterial
f 1/1/1 2/2/1 4/3/1 3/4/1
f 3/5/2 4/6/2 8/7/2 7/8/2
f 7/9/3 8/10/3 6/11/3 5/12/3
f 5/13/4 6/14/4 2/15/4 1/16/4
f 3/17/5 7/18/5 5/19/5 1/20/5
f 8/21/6 4/22/6 2/23/6 6/24/6
f 14/25/5 10/26/5 12/27/5 16/28/5
f 10/29/3 9/30/3 11/31/3 12/32/3
f 12/33/4 11/34/4 15/35/4 16/36/4
f 16/37/1 15/38/1 13/39/1 14/40/1
f 14/41/2 13/42/2 9/43/2 10/44/2
f 9/45/6 13/26/6 15/25/6 11/46/6
